<svg width="10" height="10" version="1.1" viewBox="0 0 2.6458333 2.6458334" xmlns="http://www.w3.org/2000/svg" xmlns:xlink="http://www.w3.org/1999/xlink">
    <defs>
        <linearGradient id="linearGradient10203" x1="-8.6533277e-19" x2="-8.6533277e-19" y1="2.6458333" y2="-8.7048031e-19" gradientTransform="scale(3.7795275)" gradientUnits="userSpaceOnUse">
            <stop stop-color="#fff" stop-opacity=".67000002" offset="0"/>
            <stop stop-color="#fff" stop-opacity=".67000002" offset=".28"/>
            <stop stop-color="#fff" stop-opacity=".38" offset=".5"/>
            <stop stop-color="#fff" stop-opacity=".38" offset="1"/>
        </linearGradient>
    </defs>
    <path transform="scale(.26458333)" d="m4 0c-2.2160001 0-4 1.7839999-4 4v2c0 2.2160001 1.7839999 4 4 4h2c2.2160001 0 4-1.7839999 4-4v-2c0-2.2160001-1.7839999-4-4-4zm0 1h2c1.6619996 0 3 1.3380002 3 3v2c0 1.6619996-1.3380004 3-3 3h-2c-1.6619998 0-3-1.3380004-3-3v-2c0-1.6619998 1.3380002-3 3-3z" fill="url(#linearGradient10203)" stroke-linecap="square" stroke-linejoin="bevel" stroke-opacity=".8" stroke-width="3.99999"/>
</svg>
