<?xml version="1.0" encoding="UTF-8" standalone="no"?>
<!DOCTYPE svg PUBLIC "-//W3C//DTD SVG 20010904//EN"
              "http://www.w3.org/TR/2001/REC-SVG-20010904/DTD/svg10.dtd">

<svg xmlns="http://www.w3.org/2000/svg"
     width="270.899mm" height="270.899mm"
     viewBox="0 0 1024 1024">
  <path id="Selection"
        fill="none" stroke="black" stroke-width="1"
        d="M 39.00,294.00
           C 39.00,294.00 89.00,283.35 89.00,283.35
             89.00,283.35 107.70,280.19 107.70,280.19
             107.70,280.19 110.87,286.00 110.87,286.00
             110.87,286.00 114.87,303.00 114.87,303.00
             114.87,303.00 131.21,372.00 131.21,372.00
             131.21,372.00 142.12,418.00 142.12,418.00
             142.12,418.00 173.35,550.00 173.35,550.00
             173.35,550.00 186.79,607.00 186.79,607.00
             186.79,607.00 194.48,638.68 194.48,638.68
             194.48,638.68 209.00,649.72 209.00,649.72
             209.00,649.72 248.00,676.33 248.00,676.33
             248.00,676.33 352.00,747.33 352.00,747.33
             352.00,747.33 379.00,765.72 379.00,765.72
             379.00,765.72 397.00,777.00 397.00,777.00
             397.00,777.00 366.00,799.71 366.00,799.71
             366.00,799.71 315.00,835.98 315.00,835.98
             307.65,841.07 284.70,856.44 280.00,862.00
             280.00,862.00 497.00,862.00 497.00,862.00
             499.04,862.00 502.63,862.26 504.30,861.01
             506.45,859.40 509.28,849.07 510.42,846.00
             510.42,846.00 528.31,795.00 528.31,795.00
             529.81,790.77 532.86,777.18 537.13,776.02
             540.56,775.09 559.11,777.57 564.00,777.91
             564.00,777.91 633.00,783.83 633.00,783.83
             633.00,783.83 778.00,796.17 778.00,796.17
             778.00,796.17 858.00,803.00 858.00,803.00
             851.44,793.22 827.54,770.14 818.09,760.00
             818.09,760.00 760.04,699.00 760.04,699.00
             760.04,699.00 729.00,666.00 729.00,666.00
             729.00,666.00 692.96,628.00 692.96,628.00
             690.44,625.36 679.18,615.03 678.75,612.32
             678.39,610.10 681.50,608.27 683.01,607.12
             683.01,607.12 696.00,597.37 696.00,597.37
             696.00,597.37 752.00,556.13 752.00,556.13
             752.00,556.13 855.00,480.12 855.00,480.12
             855.00,480.12 914.00,436.42 914.00,436.42
             914.00,436.42 961.00,401.71 961.00,401.71
             966.52,397.76 981.08,388.22 984.00,383.00
             984.00,383.00 906.00,372.72 906.00,372.72
             906.00,372.72 859.00,367.00 859.00,367.00
             859.00,367.00 887.09,336.00 887.09,336.00
             887.09,336.00 904.00,316.00 904.00,316.00
             904.00,316.00 867.00,316.00 867.00,316.00
             867.00,316.00 850.00,315.00 850.00,315.00
             850.00,315.00 806.00,315.00 806.00,315.00
             806.00,315.00 789.00,314.00 789.00,314.00
             789.00,314.00 745.00,314.00 745.00,314.00
             745.00,314.00 728.00,313.00 728.00,313.00
             728.00,313.00 683.00,313.00 683.00,313.00
             683.00,313.00 668.00,312.00 668.00,312.00
             668.00,312.00 622.00,312.00 622.00,312.00
             622.00,312.00 605.00,311.00 605.00,311.00
             605.00,311.00 561.00,311.00 561.00,311.00
             561.00,311.00 544.00,310.00 544.00,310.00
             544.00,310.00 500.00,310.00 500.00,310.00
             500.00,310.00 483.00,309.00 483.00,309.00
             483.00,309.00 437.00,309.00 437.00,309.00
             437.00,309.00 422.32,306.98 422.32,306.98
             422.32,306.98 415.86,299.00 415.86,299.00
             415.86,299.00 402.66,280.00 402.66,280.00
             402.66,280.00 345.00,197.00 345.00,197.00
             345.00,197.00 330.34,176.00 330.34,176.00
             330.34,176.00 319.68,162.57 319.68,162.57
             319.68,162.57 313.00,162.00 313.00,162.00
             313.00,162.00 93.00,162.00 93.00,162.00
             93.00,162.00 85.51,163.02 85.51,163.02
             85.51,163.02 81.31,172.00 81.31,172.00
             81.31,172.00 74.00,193.00 74.00,193.00
             74.00,193.00 39.00,294.00 39.00,294.00 Z" />
</svg>
